<?xml version="1.0" encoding="UTF-8" standalone="no"?>
<svg
   xmlns:dc="http://purl.org/dc/elements/1.1/"
   xmlns:cc="http://creativecommons.org/ns#"
   xmlns:rdf="http://www.w3.org/1999/02/22-rdf-syntax-ns#"
   xmlns:svg="http://www.w3.org/2000/svg"
   xmlns="http://www.w3.org/2000/svg"
   xmlns:sodipodi="http://sodipodi.sourceforge.net/DTD/sodipodi-0.dtd"
   xmlns:inkscape="http://www.inkscape.org/namespaces/inkscape"
   version="1.1"
   viewBox="0 0 697.30615 488.28998"
   stroke-miterlimit="10"
   id="svg4886"
   inkscape:version="0.91 r13725"
   sodipodi:docname="Differential Vehicle.svg"
   width="697.30615"
   height="488.28998"
   style="fill:none;stroke:none;stroke-linecap:square;stroke-miterlimit:10">
  <metadata
     id="metadata4939">
    <rdf:RDF>
      <cc:Work
         rdf:about="">
        <dc:format>image/svg+xml</dc:format>
        <dc:type
           rdf:resource="http://purl.org/dc/dcmitype/StillImage" />
        <dc:title></dc:title>
      </cc:Work>
    </rdf:RDF>
  </metadata>
  <defs
     id="defs4937" />
  <sodipodi:namedview
     pagecolor="#ffffff"
     bordercolor="#666666"
     borderopacity="1"
     objecttolerance="10"
     gridtolerance="10"
     guidetolerance="10"
     inkscape:pageopacity="0"
     inkscape:pageshadow="2"
     inkscape:window-width="1920"
     inkscape:window-height="1137"
     id="namedview4935"
     showgrid="false"
     fit-margin-top="10"
     fit-margin-left="10"
     fit-margin-right="10"
     fit-margin-bottom="10"
     inkscape:zoom="0.84852814"
     inkscape:cx="320.42446"
     inkscape:cy="178.89363"
     inkscape:window-x="-8"
     inkscape:window-y="-8"
     inkscape:window-maximized="1"
     inkscape:current-layer="svg4886" />
  <clipPath
     id="p.0">
    <path
       d="M 0,0 960,0 960,720 0,720 0,0 Z"
       id="path4889"
       inkscape:connector-curvature="0"
       style="clip-rule:nonzero" />
  </clipPath>
  <g
     id="g5502"
     transform="translate(-128.32651,-113.99813)">
    <path
       d="m 180.57564,349.487 c 0.80403,8.71393 2.54681,28.42127 7.23885,39.81628 4.69203,11.39502 5.36264,15.08094 20.91339,28.55381 15.55073,13.47287 46.78608,36.59884 72.39108,52.28344 25.60498,15.6846 55.63385,29.82636 81.23883,41.82416 25.60498,11.99783 45.9147,21.44882 72.39108,30.16275 26.47638,8.71387 50.33859,16.021 86.46719,22.12073 36.1286,6.09973 100.54327,17.0249 130.30444,14.47766 29.76117,-2.54724 64.75152,-1.20691 48.26245,-29.76111 C 683.29393,520.41046 608.42119,445.40564 552.58611,407.40039 496.75105,369.39514 426.37178,332.6633 364.77248,320.9332 c -61.59931,-11.7301 -151.08267,11.32764 -181.78215,16.08661 -30.69948,4.75897 -3.21872,3.7533 -2.41471,12.46719 z"
       id="path4895"
       inkscape:connector-curvature="0"
       style="fill:#cfe2f3;fill-rule:nonzero" />
    <path
       d="m 180.57564,349.487 c 0.80403,8.71393 2.54681,28.42127 7.23885,39.81628 4.69203,11.39502 5.36264,15.08094 20.91339,28.55381 15.55073,13.47287 46.78608,36.59884 72.39108,52.28344 25.60498,15.6846 55.63385,29.82636 81.23883,41.82416 25.60498,11.99783 45.9147,21.44882 72.39108,30.16275 26.47638,8.71387 50.33859,16.021 86.46719,22.12073 36.1286,6.09973 100.54327,17.0249 130.30444,14.47766 29.76117,-2.54724 64.75152,-1.20691 48.26245,-29.76111 C 683.29393,520.41046 608.42119,445.40564 552.58611,407.40039 496.75105,369.39514 426.37178,332.6633 364.77248,320.9332 c -61.59931,-11.7301 -151.08267,11.32764 -181.78215,16.08661 -30.69948,4.75897 -3.21872,3.7533 -2.41471,12.46719 z"
       id="path4897"
       inkscape:connector-curvature="0"
       style="fill-rule:nonzero;stroke:#000000;stroke-width:8;stroke-linecap:butt;stroke-linejoin:round" />
    <path
       d="m 265.8374,286.7498 c -21.51617,8.17716 -35.05643,13.60498 -54.29396,20.91077 -19.23753,7.30575 -50.13867,16.62292 -61.13123,22.92389 -10.99257,6.30093 -8.84602,9.4523 -4.82415,14.88186 4.02188,5.42957 19.70559,11.5958 28.95538,17.69556 9.24979,6.09973 11.59581,7.23972 26.5433,18.90286 14.94751,11.66318 45.91515,37.93878 63.14174,51.07614 17.2266,13.13736 26.27603,18.63211 40.21784,27.74802 13.94183,9.11594 25.73755,17.36221 43.43307,26.94751 17.69556,9.5853 38.54245,20.91251 62.74018,30.5643 24.19772,9.65179 52.48425,18.49872 82.4462,27.34644 29.96194,8.84777 64.4816,18.76904 97.32547,25.74017 32.84381,6.97113 77.14868,13.94183 99.73749,16.08661 22.5888,2.14483 26.47815,-0.73798 35.79528,-3.21784 9.31714,-2.47986 6.03192,0.47071 20.10761,-11.66144 14.07568,-12.13208 58.24676,-44.17279 64.3465,-61.13122 6.09973,-16.95844 -10.79004,-23.3259 -27.74805,-40.61942 -16.95801,-17.29351 -50.74103,-45.64697 -74,-63.14172 -23.25897,-17.49475 -43.03192,-29.56036 -65.55383,-41.82678 -22.52185,-12.26639 -39.27997,-19.77384 -69.57739,-31.77164 -30.29748,-11.99783 -78.15662,-27.74805 -112.20737,-40.21524 -34.05075,-12.46719 -71.98862,-28.68939 -92.09711,-34.58792 -20.10849,-5.89851 -11.32764,-5.36133 -28.5538,-0.80313 -17.22617,4.55817 -53.28696,19.97504 -74.80316,28.15222 z"
       id="path4899"
       inkscape:connector-curvature="0"
       style="fill:#cfe2f3;fill-rule:nonzero" />
    <path
       d="m 265.8374,286.7498 c -21.51617,8.17716 -35.05643,13.60498 -54.29396,20.91077 -19.23753,7.30575 -50.13867,16.62292 -61.13123,22.92389 -10.99257,6.30093 -8.84602,9.4523 -4.82415,14.88186 4.02188,5.42957 19.70559,11.5958 28.95538,17.69556 9.24979,6.09973 11.59581,7.23972 26.5433,18.90286 14.94751,11.66318 45.91515,37.93878 63.14174,51.07614 17.2266,13.13736 26.27603,18.63211 40.21784,27.74802 13.94183,9.11594 25.73755,17.36221 43.43307,26.94751 17.69556,9.5853 38.54245,20.91251 62.74018,30.5643 24.19772,9.65179 52.48425,18.49872 82.4462,27.34644 29.96194,8.84777 64.4816,18.76904 97.32547,25.74017 32.84381,6.97113 77.14868,13.94183 99.73749,16.08661 22.5888,2.14483 26.47815,-0.73798 35.79528,-3.21784 9.31714,-2.47986 6.03192,0.47071 20.10761,-11.66144 14.07568,-12.13208 58.24676,-44.17279 64.3465,-61.13122 6.09973,-16.95844 -10.79004,-23.3259 -27.74805,-40.61942 -16.95801,-17.29351 -50.74103,-45.64697 -74,-63.14172 -23.25897,-17.49475 -43.03192,-29.56036 -65.55383,-41.82678 -22.52185,-12.26639 -39.27997,-19.77384 -69.57739,-31.77164 -30.29748,-11.99783 -78.15662,-27.74805 -112.20737,-40.21524 -34.05075,-12.46719 -71.98862,-28.68939 -92.09711,-34.58792 -20.10849,-5.89851 -11.32764,-5.36133 -28.5538,-0.80313 -17.22617,4.55817 -53.28696,19.97504 -74.80316,28.15222 z"
       id="path4901"
       inkscape:connector-curvature="0"
       style="fill-rule:nonzero;stroke:#000000;stroke-width:8;stroke-linecap:butt;stroke-linejoin:round" />
    <path
       d="m 277.05338,291.01352 c -19.61844,7.45593 -31.96445,12.40503 -49.50523,19.06644 -17.54078,6.6614 -45.71643,15.15677 -55.73946,20.90198 -10.02301,5.74523 -8.0658,8.61862 -4.39865,13.5693 3.66714,4.95068 17.96756,10.57306 26.40152,16.1348 8.43394,5.56173 10.57304,6.60119 24.20218,17.23565 13.62913,10.63449 41.86542,34.59256 57.57263,46.5712 15.70721,11.97864 23.95849,16.98877 36.67062,25.30066 12.71216,8.31189 23.4675,15.83087 39.6023,24.57074 16.13479,8.73987 35.14297,19.06802 57.20645,27.86853 22.0635,8.80051 47.85516,16.8671 75.17447,24.93448 27.31927,8.06744 58.79434,17.11365 88.74136,23.46991 29.94696,6.35626 70.34418,12.71216 90.94067,14.66779 20.59644,1.95562 24.14276,-0.67292 32.63812,-2.93409 8.49536,-2.2611 5.49994,0.4292 18.33411,-10.63287 12.83423,-11.06201 53.10937,-40.27673 58.67108,-55.73944 5.56177,-15.46271 -9.83832,-21.26856 -25.30066,-37.03677 -15.46228,-15.76825 -46.26563,-41.62094 -67.47315,-57.57263 -21.20758,-15.95173 -39.23657,-26.95316 -59.77197,-38.13767 -20.53546,-11.18451 -35.81549,-18.02978 -63.44073,-28.96939 -27.62519,-10.93961 -71.26318,-25.30066 -102.31064,-36.66824 -31.04746,-11.36759 -65.63922,-26.159 -83.97415,-31.53726 -18.3349,-5.37827 -10.32856,-4.88846 -26.03537,-0.73233 -15.70679,4.15615 -48.58704,18.21328 -68.20551,25.66922 z"
       id="path4903"
       inkscape:connector-curvature="0"
       style="fill:#cfe2f3;fill-rule:nonzero" />
    <path
       d="m 277.05338,291.01352 c -19.61844,7.45593 -31.96445,12.40503 -49.50523,19.06644 -17.54078,6.6614 -45.71643,15.15677 -55.73946,20.90198 -10.02301,5.74523 -8.0658,8.61862 -4.39865,13.5693 3.66714,4.95068 17.96756,10.57306 26.40152,16.1348 8.43394,5.56173 10.57304,6.60119 24.20218,17.23565 13.62913,10.63449 41.86542,34.59256 57.57263,46.5712 15.70721,11.97864 23.95849,16.98877 36.67062,25.30066 12.71216,8.31189 23.4675,15.83087 39.6023,24.57074 16.13479,8.73987 35.14297,19.06802 57.20645,27.86853 22.0635,8.80051 47.85516,16.8671 75.17447,24.93448 27.31927,8.06744 58.79434,17.11365 88.74136,23.46991 29.94696,6.35626 70.34418,12.71216 90.94067,14.66779 20.59644,1.95562 24.14276,-0.67292 32.63812,-2.93409 8.49536,-2.2611 5.49994,0.4292 18.33411,-10.63287 12.83423,-11.06201 53.10937,-40.27673 58.67108,-55.73944 5.56177,-15.46271 -9.83832,-21.26856 -25.30066,-37.03677 -15.46228,-15.76825 -46.26563,-41.62094 -67.47315,-57.57263 -21.20758,-15.95173 -39.23657,-26.95316 -59.77197,-38.13767 -20.53546,-11.18451 -35.81549,-18.02978 -63.44073,-28.96939 -27.62519,-10.93961 -71.26318,-25.30066 -102.31064,-36.66824 -31.04746,-11.36759 -65.63922,-26.159 -83.97415,-31.53726 -18.3349,-5.37827 -10.32856,-4.88846 -26.03537,-0.73233 -15.70679,4.15615 -48.58704,18.21328 -68.20551,25.66922 z"
       id="path4905"
       inkscape:connector-curvature="0"
       style="fill-rule:nonzero;stroke:#000000;stroke-width:3;stroke-linecap:butt;stroke-linejoin:round" />
    <path
       d="m 342.74274,295.88446 41.94589,19.73941 c 5.79154,2.72546 6.13327,14.18466 0.76328,25.59488 -5.37,11.41019 -14.41818,18.45059 -20.20969,15.72513 l -41.94592,-19.73941 0,0 c -5.79154,-2.72547 -6.13324,-14.18466 -0.76328,-25.59485 5.37,-11.41022 14.41819,-18.45059 20.20972,-15.72516 z"
       id="path4907"
       inkscape:connector-curvature="0"
       style="fill:#cfe2f3;fill-rule:nonzero" />
    <path
       d="m 365.24222,356.94388 c -5.79153,-2.72543 -6.13324,-14.18466 -0.76328,-25.59485 5.37,-11.41022 14.41819,-18.45059 20.20969,-15.72516"
       id="path4909"
       inkscape:connector-curvature="0"
       style="fill:#000000;fill-opacity:0;fill-rule:nonzero" />
    <path
       d="m 342.74274,295.88446 41.94589,19.73941 c 5.79154,2.72546 6.13327,14.18466 0.76328,25.59488 -5.37,11.41019 -14.41818,18.45059 -20.20969,15.72513 l -41.94592,-19.73941 0,0 c -5.79154,-2.72547 -6.13324,-14.18466 -0.76328,-25.59485 5.37,-11.41022 14.41819,-18.45059 20.20972,-15.72516 z"
       id="path4911"
       inkscape:connector-curvature="0"
       style="fill:#000000;fill-opacity:0;fill-rule:nonzero" />
    <path
       d="m 365.24222,356.94388 c -5.79153,-2.72543 -6.13324,-14.18466 -0.76328,-25.59485 5.37,-11.41022 14.41819,-18.45059 20.20969,-15.72516"
       id="path4913"
       inkscape:connector-curvature="0"
       style="fill-rule:nonzero;stroke:#000000;stroke-width:4;stroke-linecap:butt;stroke-linejoin:round;stroke-dasharray:32, 12" />
    <path
       d="m 342.74274,295.88446 41.94589,19.73941 c 5.79154,2.72546 6.13327,14.18466 0.76328,25.59488 -5.37,11.41019 -14.41818,18.45059 -20.20969,15.72513 l -41.94592,-19.73941 0,0 c -5.79154,-2.72547 -6.13324,-14.18466 -0.76328,-25.59485 5.37,-11.41022 14.41819,-18.45059 20.20972,-15.72516 z"
       id="path4915"
       inkscape:connector-curvature="0"
       style="fill-rule:nonzero;stroke:#000000;stroke-width:4;stroke-linecap:butt;stroke-linejoin:round;stroke-dasharray:32, 12" />
    <path
       d="m 383.3559,323.19894 1.5358,0.7601 -12.14173,24.58267 -1.53579,-0.7601 z m 3.07162,1.5202 3.0716,1.52021 -12.14173,24.58267 -3.07162,-1.52021 z m 4.6074,2.28031 57.06198,28.24109 6.07086,-12.29136 19.21176,40.10016 -43.49521,9.06522 6.07086,-12.29135 -57.06198,-28.24109 z"
       id="path4917"
       inkscape:connector-curvature="0"
       style="fill:#ff9900;fill-rule:nonzero" />
    <path
       d="m 383.3559,323.19894 1.5358,0.7601 -12.14173,24.58267 -1.53579,-0.7601 z m 3.07162,1.5202 3.0716,1.52021 -12.14173,24.58267 -3.07162,-1.52021 z m 4.6074,2.28031 57.06198,28.24109 6.07086,-12.29136 19.21176,40.10016 -43.49521,9.06522 6.07086,-12.29135 -57.06198,-28.24109 z"
       id="path4919"
       inkscape:connector-curvature="0"
       style="fill-rule:nonzero;stroke:#000000;stroke-width:1;stroke-linecap:butt;stroke-linejoin:round" />
    <path
       d="m 260.66357,332.40552 46.87671,22.06076 c 6.47232,3.04593 6.85422,15.85275 0.85297,28.60477 -6.00122,12.75204 -16.11304,20.62036 -22.58536,17.57443 l -46.87671,-22.06076 0,0 c -6.47232,-3.04596 -6.85422,-15.85278 -0.85298,-28.6048 6.00123,-12.75204 16.11303,-20.62036 22.58537,-17.5744 z"
       id="path4921"
       inkscape:connector-curvature="0"
       style="fill:#cfe2f3;fill-rule:nonzero" />
    <path
       d="m 285.8079,400.64548 c -6.47232,-3.04596 -6.85422,-15.85278 -0.853,-28.6048 6.00125,-12.75204 16.11307,-20.62036 22.58539,-17.5744"
       id="path4923"
       inkscape:connector-curvature="0"
       style="fill:#000000;fill-opacity:0;fill-rule:nonzero" />
    <path
       d="m 260.66357,332.40552 46.87671,22.06076 c 6.47232,3.04593 6.85422,15.85275 0.85297,28.60477 -6.00122,12.75204 -16.11304,20.62036 -22.58536,17.57443 l -46.87671,-22.06076 0,0 c -6.47232,-3.04596 -6.85422,-15.85278 -0.85298,-28.6048 6.00123,-12.75204 16.11303,-20.62036 22.58537,-17.5744 z"
       id="path4925"
       inkscape:connector-curvature="0"
       style="fill:#000000;fill-opacity:0;fill-rule:nonzero" />
    <path
       d="m 285.8079,400.64548 c -6.47232,-3.04596 -6.85422,-15.85278 -0.853,-28.6048 6.00125,-12.75204 16.11307,-20.62036 22.58539,-17.5744"
       id="path4927"
       inkscape:connector-curvature="0"
       style="fill-rule:nonzero;stroke:#000000;stroke-width:4;stroke-linecap:butt;stroke-linejoin:round;stroke-dasharray:32, 12" />
    <path
       d="m 260.66357,332.40552 46.87671,22.06076 c 6.47232,3.04593 6.85422,15.85275 0.85297,28.60477 -6.00122,12.75204 -16.11304,20.62036 -22.58536,17.57443 l -46.87671,-22.06076 0,0 c -6.47232,-3.04596 -6.85422,-15.85278 -0.85298,-28.6048 6.00123,-12.75204 16.11303,-20.62036 22.58537,-17.5744 z"
       id="path4929"
       inkscape:connector-curvature="0"
       style="fill-rule:nonzero;stroke:#000000;stroke-width:4;stroke-linecap:butt;stroke-linejoin:round;stroke-dasharray:32, 12" />
    <path
       d="m 302.66464,365.33392 1.6806,0.83173 -13.29135,26.89764 -1.6806,-0.83176 z m 3.36118,1.66345 3.3612,1.66348 -13.29135,26.89765 -3.36118,-1.66348 z m 5.04177,2.49521 62.42151,30.89285 6.6457,-13.44882 21.01803,43.87763 -47.60074,9.91766 6.64569,-13.44882 -62.42151,-30.89285 z"
       id="path4931"
       inkscape:connector-curvature="0"
       style="fill:#ff9900;fill-rule:nonzero" />
    <path
       d="m 302.66464,365.33392 1.6806,0.83173 -13.29135,26.89764 -1.6806,-0.83176 z m 3.36118,1.66345 3.3612,1.66348 -13.29135,26.89765 -3.36118,-1.66348 z m 5.04177,2.49521 62.42151,30.89285 6.6457,-13.44882 21.01803,43.87763 -47.60074,9.91766 6.64569,-13.44882 -62.42151,-30.89285 z"
       id="path4933"
       inkscape:connector-curvature="0"
       style="fill-rule:nonzero;stroke:#000000;stroke-width:1;stroke-linecap:butt;stroke-linejoin:round" />
  </g>
</svg>
